<svg width="49" height="48" viewBox="0 0 49 48" fill="none" xmlns="http://www.w3.org/2000/svg">
<g id="Img">
<path id="Vector" d="M24.98 43.494L24.044 44.666C24.3098 44.8783 24.6398 44.9939 24.98 44.9939C25.3201 44.9939 25.6502 44.8783 25.916 44.666L24.98 43.494ZM36.98 18C36.98 19.84 36.374 22.162 35.332 24.724C34.302 27.262 32.888 29.924 31.384 32.41C30.0194 34.6673 28.5394 36.8529 26.95 38.958C25.56 40.786 24.504 41.954 24.044 42.322L25.916 44.666C26.706 44.038 27.962 42.582 29.338 40.772C30.9913 38.5834 32.5307 36.3111 33.95 33.964C35.51 31.388 37.002 28.582 38.11 25.854C39.21 23.15 39.98 20.408 39.98 18H36.98ZM25.916 42.32C25.456 41.954 24.4 40.786 23.01 38.958C21.4205 36.8529 19.9406 34.6673 18.576 32.41C17.072 29.924 15.66 27.262 14.628 24.724C13.586 22.162 12.98 19.842 12.98 18H9.97998C9.97998 20.408 10.75 23.15 11.848 25.854C12.958 28.582 14.452 31.388 16.008 33.964C17.568 36.54 19.208 38.912 20.622 40.772C21.998 42.582 23.254 44.038 24.044 44.666L25.916 42.32ZM12.98 18C12.98 14.8174 14.2443 11.7652 16.4947 9.51472C18.7451 7.26428 21.7974 6 24.98 6V3C21.0017 3 17.1864 4.58035 14.3734 7.3934C11.5603 10.2064 9.97998 14.0218 9.97998 18H12.98ZM24.98 6C28.1626 6 31.2148 7.26428 33.4653 9.51472C35.7157 11.7652 36.98 14.8174 36.98 18H39.98C39.98 14.0218 38.3996 10.2064 35.5866 7.3934C32.7735 4.58035 28.9582 3 24.98 3V6ZM29.98 18C29.98 18.6566 29.8507 19.3068 29.5994 19.9134C29.3481 20.52 28.9798 21.0712 28.5155 21.5355C28.0512 21.9998 27.5 22.3681 26.8934 22.6194C26.2868 22.8707 25.6366 23 24.98 23V26C27.1017 26 29.1365 25.1571 30.6368 23.6569C32.1371 22.1566 32.98 20.1217 32.98 18H29.98ZM24.98 23C23.6539 23 22.3821 22.4732 21.4444 21.5355C20.5068 20.5979 19.98 19.3261 19.98 18H16.98C16.98 20.1217 17.8228 22.1566 19.3231 23.6569C20.8234 25.1571 22.8582 26 24.98 26V23ZM19.98 18C19.98 16.6739 20.5068 15.4021 21.4444 14.4645C22.3821 13.5268 23.6539 13 24.98 13V10C22.8582 10 20.8234 10.8429 19.3231 12.3431C17.8228 13.8434 16.98 15.8783 16.98 18H19.98ZM24.98 13C26.3061 13 27.5778 13.5268 28.5155 14.4645C29.4532 15.4021 29.98 16.6739 29.98 18H32.98C32.98 15.8783 32.1371 13.8434 30.6368 12.3431C29.1365 10.8429 27.1017 10 24.98 10V13Z" fill="#111111"/>
</g>
</svg>
