<svg width="49" height="48" viewBox="0 0 49 48" fill="none" xmlns="http://www.w3.org/2000/svg">
<g id="Img">
<path id="Vector" d="M32.98 34.5H36.98C38.1735 34.5 39.318 34.0259 40.162 33.182C41.0059 32.3381 41.48 31.1935 41.48 30V12C41.48 10.8065 41.0059 9.66193 40.162 8.81802C39.318 7.97411 38.1735 7.5 36.98 7.5H12.98C11.7865 7.5 10.6419 7.97411 9.798 8.81802C8.95409 9.66193 8.47998 10.8065 8.47998 12V30C8.47998 31.1935 8.95409 32.3381 9.798 33.182C10.6419 34.0259 11.7865 34.5 12.98 34.5H24.98C26.1735 34.5 27.318 34.9741 28.162 35.818C29.0059 36.6619 29.48 37.8065 29.48 39V42M30.98 25.5H15.98M33.98 16.5H15.98" stroke="#111111" stroke-width="3"/>
</g>
</svg>
