<svg width="20" height="20" viewBox="0 0 20 20" fill="none" xmlns="http://www.w3.org/2000/svg">
<g id="eye-slash">
<path id="Shape" d="M8.94021 4.07996C9.29097 4.0262 9.64535 3.99945 10.0002 3.99996C13.1802 3.99996 16.1702 6.28996 17.9102 9.99996C17.6441 10.5646 17.3435 11.1123 17.0102 11.64C16.9044 11.8038 16.8488 11.995 16.8502 12.19C16.8548 12.6385 17.1574 13.029 17.5906 13.1455C18.0237 13.2619 18.4814 13.0757 18.7102 12.69C19.1761 11.9579 19.5808 11.1886 19.9202 10.39C20.0286 10.1378 20.0286 9.85214 19.9202 9.59996C17.9002 4.90996 14.1002 1.99987 10.0002 1.99987C9.53088 1.9976 9.06229 2.03776 8.60021 2.11996C8.24294 2.1807 7.94522 2.42742 7.81918 2.76719C7.69315 3.10696 7.75795 3.48816 7.98918 3.76719C8.22041 4.04622 8.58294 4.1807 8.94021 4.11996V4.07996ZM1.71021 0.289964C1.45655 0.0363055 1.08683 -0.0627594 0.74033 0.0300861C0.393826 0.122932 0.123176 0.393582 0.0303302 0.740086C-0.0625153 1.08659 0.0365497 1.45631 0.290208 1.70996L3.39021 4.79996C1.97578 6.16149 0.850065 7.79395 0.0802083 9.59996C-0.0311048 9.85501 -0.0311048 10.1449 0.0802083 10.4C2.10021 15.09 5.90021 18 10.0002 18C11.7973 17.9876 13.552 17.4525 15.0502 16.46L18.2902 19.71C18.478 19.8993 18.7336 20.0058 19.0002 20.0058C19.2668 20.0058 19.5224 19.8993 19.7102 19.71C19.8995 19.5222 20.006 19.2666 20.006 19C20.006 18.7333 19.8995 18.4777 19.7102 18.29L1.71021 0.289964ZM8.07021 9.47996L10.5202 11.93C10.3512 11.9784 10.176 12.002 10.0002 12C8.89564 12 8.00021 11.1045 8.00021 9.99996C7.99816 9.82415 8.02174 9.64898 8.07021 9.47996ZM10.0002 16C6.82021 16 3.83021 13.71 2.10021 9.99996C2.7463 8.57371 3.66328 7.28654 4.80021 6.20996L6.57021 7.99996C5.71623 9.55858 5.99304 11.4937 7.24973 12.7504C8.50643 14.0071 10.4416 14.2839 12.0002 13.43L13.5902 15C12.5013 15.6408 11.2636 15.9856 10.0002 16Z" fill="#111111"/>
</g>
</svg>
