<svg width="25" height="24" viewBox="0 0 25 24" fill="none" xmlns="http://www.w3.org/2000/svg">
<g id="Icon24px">
<path id="Vector" d="M21.1699 8.25H10.1699M4.91992 8.25H3.16992" stroke="#111111" stroke-width="1.5"/>
<path id="Vector_2" d="M7.66992 6C7.37445 6 7.08187 6.0582 6.80888 6.17127C6.5359 6.28434 6.28786 6.45008 6.07893 6.65901C5.87 6.86794 5.70427 7.11598 5.59119 7.38896C5.47812 7.66194 5.41992 7.95453 5.41992 8.25C5.41992 8.54547 5.47812 8.83806 5.59119 9.11104C5.70427 9.38402 5.87 9.63206 6.07893 9.84099C6.28786 10.0499 6.5359 10.2157 6.80888 10.3287C7.08187 10.4418 7.37445 10.5 7.66992 10.5C8.26666 10.5 8.83896 10.2629 9.26091 9.84099C9.68287 9.41903 9.91992 8.84674 9.91992 8.25C9.91992 7.65326 9.68287 7.08097 9.26091 6.65901C8.83896 6.23705 8.26666 6 7.66992 6Z" stroke="#111111" stroke-width="1.5"/>
<path id="Vector_3" d="M3.16992 15.75H13.9199M18.9199 15.75H21.1699" stroke="#111111" stroke-width="1.5"/>
<path id="Vector_4" d="M16.6699 13.5C16.0732 13.5 15.5009 13.7371 15.0789 14.159C14.657 14.581 14.4199 15.1533 14.4199 15.75C14.4199 16.3467 14.657 16.919 15.0789 17.341C15.5009 17.7629 16.0732 18 16.6699 18C17.2667 18 17.839 17.7629 18.2609 17.341C18.6829 16.919 18.9199 16.3467 18.9199 15.75C18.9199 15.1533 18.6829 14.581 18.2609 14.159C17.839 13.7371 17.2667 13.5 16.6699 13.5Z" stroke="#111111" stroke-width="1.5"/>
</g>
</svg>
