<svg width="13" height="16" viewBox="0 0 13 16" fill="none" xmlns="http://www.w3.org/2000/svg">
<g id="Icon" clip-path="url(#clip0_32_1207)">
<path id="Vector" d="M6.36914 2C5.27581 2 4.26914 2.26667 3.34914 2.8C2.42914 3.33333 1.70247 4.06 1.16914 4.98C0.635807 5.9 0.369141 6.90667 0.369141 8C0.369141 9.09333 0.635807 10.1 1.16914 11.02C1.70247 11.94 2.42914 12.6667 3.34914 13.2C4.26914 13.7333 5.27581 14 6.36914 14C7.46247 14 8.46914 13.7333 9.38914 13.2C10.3091 12.6667 11.0358 11.94 11.5691 11.02C12.1025 10.1 12.3691 9.09333 12.3691 8C12.3691 6.90667 12.1025 5.9 11.5691 4.98C11.0358 4.06 10.3091 3.33333 9.38914 2.8C8.46914 2.26667 7.46247 2 6.36914 2ZM6.48914 11.44C6.24914 11.44 6.04247 11.36 5.86914 11.2C5.69581 11.04 5.60914 10.84 5.60914 10.6C5.60914 10.36 5.69581 10.16 5.86914 10C6.04247 9.84 6.24247 9.76 6.46914 9.76C6.69581 9.76 6.89581 9.84 7.06914 10C7.24247 10.16 7.32914 10.36 7.32914 10.6C7.32914 10.84 7.24247 11.04 7.06914 11.2C6.89581 11.36 6.70247 11.44 6.48914 11.44ZM4.92914 4.68C5.30247 4.44 5.75581 4.32 6.28914 4.32C6.98247 4.32 7.56247 4.48667 8.02914 4.82C8.49581 5.15333 8.72914 5.65333 8.72914 6.32C8.72914 6.72 8.62247 7.05333 8.40914 7.32C8.30247 7.48 8.07581 7.69333 7.72914 7.96L7.40914 8.24C7.24914 8.37333 7.12914 8.53333 7.04914 8.72C7.02247 8.82667 7.00914 9.01333 7.00914 9.28H5.72914C5.75581 8.74667 5.80914 8.38 5.88914 8.18C5.96914 7.98 6.18247 7.74667 6.52914 7.48L6.84914 7.2C6.95581 7.12 7.04914 7.04 7.12914 6.96C7.23581 6.77333 7.28914 6.57333 7.28914 6.36C7.28914 6.14667 7.22247 5.94 7.08914 5.74C6.95581 5.54 6.70914 5.44 6.34914 5.44C5.98914 5.44 5.73581 5.56 5.58914 5.8C5.44247 6.04 5.36914 6.29333 5.36914 6.56H4.00914C4.06247 5.68 4.36914 5.05333 4.92914 4.68Z" fill="black"/>
</g>
<defs>
<clipPath id="clip0_32_1207">
<rect width="12" height="16" fill="white" transform="matrix(1 0 0 -1 0.369141 16)"/>
</clipPath>
</defs>
</svg>
