<svg width="25" height="18" viewBox="0 0 25 18" fill="none" xmlns="http://www.w3.org/2000/svg">
<g id="Button &#226;&#134;&#146; Img">
<path id="Vector" d="M19.9427 15.2176L17.1602 12.4576C18.2403 11.1109 18.7633 9.40152 18.6218 7.68103C18.4803 5.96053 17.685 4.35964 16.3993 3.20753C15.1137 2.05543 13.4356 1.43968 11.7099 1.4869C9.98424 1.53412 8.34225 2.24072 7.12156 3.46141C5.90088 4.68209 5.19428 6.32408 5.14706 8.04974C5.09984 9.77541 5.71559 11.4536 6.86769 12.7392C8.01979 14.0248 9.62068 14.8201 11.3412 14.9617C13.0617 15.1032 14.771 14.5801 16.1177 13.5001L18.8777 16.2601C18.9474 16.3303 19.0304 16.3861 19.1218 16.4242C19.2132 16.4623 19.3112 16.4819 19.4102 16.4819C19.5092 16.4819 19.6072 16.4623 19.6986 16.4242C19.79 16.3861 19.873 16.3303 19.9427 16.2601C20.0779 16.1202 20.1534 15.9333 20.1534 15.7388C20.1534 15.5443 20.0779 15.3574 19.9427 15.2176ZM11.9102 13.5001C10.8719 13.5001 9.85682 13.1921 8.99346 12.6153C8.13011 12.0384 7.4572 11.2185 7.05984 10.2591C6.66248 9.29983 6.55851 8.24423 6.76108 7.22583C6.96366 6.20743 7.46367 5.27197 8.1979 4.53774C8.93212 3.80351 9.86758 3.3035 10.886 3.10093C11.9044 2.89836 12.96 3.00232 13.9193 3.39968C14.8786 3.79704 15.6985 4.46995 16.2754 5.33331C16.8523 6.19666 17.1602 7.2117 17.1602 8.25005C17.1602 9.64244 16.6071 10.9778 15.6225 11.9624C14.638 12.9469 13.3026 13.5001 11.9102 13.5001Z" fill="#757575"/>
</g>
</svg>
